<svg width="32" height="32" viewBox="0 0 32 32" fill="none" xmlns="http://www.w3.org/2000/svg">
<g clip-path="url(#clip0_191_5)">
<path d="M24 0.5H8C3.85786 0.5 0.5 3.85786 0.5 8V24C0.5 28.1421 3.85786 31.5 8 31.5H24C28.1421 31.5 31.5 28.1421 31.5 24V8C31.5 3.85786 28.1421 0.5 24 0.5Z" fill="white" stroke="#909090"/>
<path d="M20.6646 15.1311H17.2014V11.6681C17.2014 10.3327 15.1304 10.3327 15.1304 11.6681V15.1311H11.6673C10.3322 15.1311 10.3322 17.2021 11.6673 17.2021H15.1304V20.6651C15.1304 22.0004 17.2014 22.0004 17.2014 20.6651V17.2021H20.6646C21.9998 17.2021 21.9998 15.1311 20.6646 15.1311Z" fill="#909090"/>
</g>
<defs>
<clipPath id="clip0_191_5">
<rect width="32" height="32" fill="white"/>
</clipPath>
</defs>
</svg>
